<svg viewBox="0 0 18 17" fill="none" >
<path d="M6.18735 0.317383C5.67047 0.317383 5.25278 0.729636 5.25278 1.24652V5.07174H6.57313V1.38236H16.685V8.52748H13.8106V9.59246H17.0708C17.5876 9.59246 17.9999 9.17478 17.9999 8.65789V1.24652C17.9999 0.729636 17.5876 0.317383 17.0708 0.317383H6.18735ZM1.18848 5.88134C0.671595 5.88134 0.253906 6.2936 0.253906 6.81048V14.2219C0.253906 14.7387 0.671595 15.1564 1.18848 15.1564H12.0719C12.5888 15.1564 13.001 14.7387 13.001 14.2219V12.9232V11.228V10.2336V9.59246V8.52748V6.88655V6.81048C13.001 6.2936 12.5888 5.88134 12.0719 5.88134H7.06758H6.57313H5.25278H4.78006H1.18848ZM1.57426 6.94632H11.6861V14.0914H1.57426V6.94632ZM13.8106 10.2336V11.228H15.783C15.783 10.6779 15.3388 10.2336 14.7887 10.2336H13.8106ZM3.47057 15.7976C2.92048 15.7976 2.48166 16.2418 2.48166 16.7919H10.7841C10.7841 16.2418 10.3399 15.7976 9.7898 15.7976H3.47057Z" fill="currentColor"/>
</svg>
